# xmcd
# Copyright (C) 1995-1998 Ti Kan
#
# Track frame offsets:
#       150
#       13515
#       30182
#       44017
#       56033
#       73446
#       90527
#       100656
#       115185
#       129191
#       144582
#       164181
#
# Disc length: 2337 seconds
#
# Revision: 0
# Processed by: cddbd v1.5.2PL0 Copyright (c) Steve Scherf et al.
# Submitted via: CD-Import v1.0
#
DISCID=a4091f0c
DTITLE=Tim Easton - Porcupine
DYEAR=2009
DGENRE=
TTITLE0=Burgundy Red
TTITLE1=Broke My Heart
TTITLE2=Porcupine
TTITLE3=The Young Girls
TTITLE4=Stormy
TTITLE5=Stone's Throw Away
TTITLE6=7th Wheel
TTITLE7=Get What I Got
TTITLE8=Baltimore
TTITLE9=Northbound
TTITLE10=Long Cold Night In Bed
TTITLE11=Goodbye Amsterdam
EXTD=
EXTT0=
EXTT1=
EXTT2=
EXTT3=
EXTT4=
EXTT5=
EXTT6=
EXTT7=
EXTT8=
EXTT9=
EXTT10=
EXTT11=
PLAYORDER=
